<svg width="76" height="11" viewBox="0 0 76 11" fill="none" xmlns="http://www.w3.org/2000/svg">
<path d="M1.484 10V1.672H2.276L5.804 7.468H5.264L8.792 1.672H9.584V10H8.456V3.652L8.72 3.724L5.936 8.296H5.144L2.36 3.724L2.612 3.652V10H1.484ZM13.6984 10.12C13.1304 10.12 12.6184 9.992 12.1624 9.736C11.7064 9.472 11.3464 9.116 11.0824 8.668C10.8184 8.22 10.6864 7.712 10.6864 7.144C10.6864 6.584 10.8144 6.08 11.0704 5.632C11.3344 5.184 11.6864 4.832 12.1264 4.576C12.5744 4.312 13.0744 4.18 13.6264 4.18C14.1544 4.18 14.6184 4.3 15.0184 4.54C15.4264 4.78 15.7424 5.112 15.9664 5.536C16.1984 5.96 16.3144 6.44 16.3144 6.976C16.3144 7.056 16.3104 7.144 16.3024 7.24C16.2944 7.328 16.2784 7.432 16.2544 7.552H11.4424V6.652H15.6784L15.2824 7C15.2824 6.616 15.2144 6.292 15.0784 6.028C14.9424 5.756 14.7504 5.548 14.5024 5.404C14.2544 5.252 13.9544 5.176 13.6024 5.176C13.2344 5.176 12.9104 5.256 12.6304 5.416C12.3504 5.576 12.1344 5.8 11.9824 6.088C11.8304 6.376 11.7544 6.716 11.7544 7.108C11.7544 7.508 11.8344 7.86 11.9944 8.164C12.1544 8.46 12.3824 8.692 12.6784 8.86C12.9744 9.02 13.3144 9.1 13.6984 9.1C14.0184 9.1 14.3104 9.044 14.5744 8.932C14.8464 8.82 15.0784 8.652 15.2704 8.428L15.9664 9.136C15.6944 9.456 15.3584 9.7 14.9584 9.868C14.5664 10.036 14.1464 10.12 13.6984 10.12ZM19.0542 10L16.4382 4.3H17.6382L19.7382 9.112H19.0422L21.1542 4.3H22.3062L19.6902 10H19.0542ZM25.3272 10V1.912H26.4552V10H25.3272ZM22.4952 2.704V1.672H29.2752V2.704H22.4952ZM33.5018 10.12C32.9098 10.12 32.3578 10.012 31.8458 9.796C31.3338 9.572 30.8858 9.264 30.5018 8.872C30.1178 8.472 29.8178 8.012 29.6018 7.492C29.3938 6.972 29.2898 6.416 29.2898 5.824C29.2898 5.224 29.3938 4.668 29.6018 4.156C29.8178 3.636 30.1138 3.18 30.4898 2.788C30.8738 2.396 31.3178 2.092 31.8218 1.876C32.3338 1.66 32.8858 1.552 33.4778 1.552C34.0698 1.552 34.6178 1.66 35.1218 1.876C35.6338 2.092 36.0818 2.396 36.4658 2.788C36.8498 3.18 37.1498 3.636 37.3658 4.156C37.5818 4.676 37.6898 5.236 37.6898 5.836C37.6898 6.428 37.5818 6.984 37.3658 7.504C37.1498 8.024 36.8498 8.48 36.4658 8.872C36.0898 9.264 35.6458 9.572 35.1338 9.796C34.6298 10.012 34.0858 10.12 33.5018 10.12ZM33.4778 9.04C34.0778 9.04 34.6018 8.904 35.0498 8.632C35.5058 8.352 35.8658 7.972 36.1298 7.492C36.3938 7.004 36.5258 6.448 36.5258 5.824C36.5258 5.36 36.4498 4.936 36.2978 4.552C36.1458 4.16 35.9338 3.82 35.6618 3.532C35.3898 3.244 35.0698 3.024 34.7018 2.872C34.3338 2.712 33.9258 2.632 33.4778 2.632C32.8858 2.632 32.3618 2.768 31.9058 3.04C31.4578 3.312 31.1018 3.688 30.8378 4.168C30.5818 4.648 30.4538 5.2 30.4538 5.824C30.4538 6.288 30.5258 6.72 30.6698 7.12C30.8218 7.512 31.0298 7.852 31.2938 8.14C31.5658 8.42 31.8858 8.64 32.2538 8.8C32.6298 8.96 33.0378 9.04 33.4778 9.04ZM38.9371 10V1.672H39.7291L40.0651 2.98V10H38.9371ZM44.6971 10L39.5851 3.172L39.7291 1.672L44.8531 8.488L44.6971 10ZM44.6971 10L44.3611 8.764V1.672H45.4891V10H44.6971ZM48.7648 9.316L51.8368 6.076C52.1488 5.756 52.3928 5.48 52.5688 5.248C52.7448 5.008 52.8688 4.788 52.9408 4.588C53.0208 4.388 53.0608 4.18 53.0608 3.964C53.0608 3.54 52.9248 3.208 52.6528 2.968C52.3808 2.728 52.0288 2.608 51.5968 2.608C51.1728 2.608 50.8008 2.712 50.4808 2.92C50.1608 3.12 49.8768 3.432 49.6288 3.856L48.8368 3.196C49.1648 2.652 49.5608 2.244 50.0248 1.972C50.4888 1.692 51.0248 1.552 51.6328 1.552C52.1448 1.552 52.5888 1.652 52.9648 1.852C53.3488 2.052 53.6448 2.332 53.8528 2.692C54.0608 3.052 54.1648 3.472 54.1648 3.952C54.1648 4.296 54.1208 4.604 54.0328 4.876C53.9528 5.148 53.8048 5.428 53.5888 5.716C53.3808 5.996 53.0888 6.332 52.7128 6.724L50.2288 9.28L48.7648 9.316ZM48.7648 10V9.316L49.7248 8.992H54.3568V10H48.7648ZM58.5209 10.12C57.8969 10.12 57.3249 9.944 56.8049 9.592C56.2929 9.24 55.8849 8.744 55.5809 8.104C55.2769 7.456 55.1249 6.696 55.1249 5.824C55.1249 4.952 55.2729 4.196 55.5689 3.556C55.8729 2.916 56.2809 2.424 56.7929 2.08C57.3049 1.728 57.8689 1.552 58.4849 1.552C59.1169 1.552 59.6889 1.728 60.2009 2.08C60.7129 2.424 61.1169 2.916 61.4129 3.556C61.7169 4.196 61.8689 4.956 61.8689 5.836C61.8689 6.708 61.7169 7.468 61.4129 8.116C61.1169 8.756 60.7129 9.252 60.2009 9.604C59.6969 9.948 59.1369 10.12 58.5209 10.12ZM58.4969 9.052C58.9369 9.052 59.3209 8.932 59.6489 8.692C59.9849 8.444 60.2489 8.08 60.4409 7.6C60.6329 7.12 60.7289 6.528 60.7289 5.824C60.7289 5.12 60.6329 4.532 60.4409 4.06C60.2489 3.58 59.9849 3.22 59.6489 2.98C59.3129 2.732 58.9249 2.608 58.4849 2.608C58.0529 2.608 57.6689 2.732 57.3329 2.98C56.9969 3.22 56.7329 3.58 56.5409 4.06C56.3569 4.532 56.2649 5.12 56.2649 5.824C56.2649 6.528 56.3569 7.12 56.5409 7.6C56.7329 8.08 56.9969 8.444 57.3329 8.692C57.6689 8.932 58.0569 9.052 58.4969 9.052ZM62.5085 9.316L65.5805 6.076C65.8925 5.756 66.1365 5.48 66.3125 5.248C66.4885 5.008 66.6125 4.788 66.6845 4.588C66.7645 4.388 66.8045 4.18 66.8045 3.964C66.8045 3.54 66.6685 3.208 66.3965 2.968C66.1245 2.728 65.7725 2.608 65.3405 2.608C64.9165 2.608 64.5445 2.712 64.2245 2.92C63.9045 3.12 63.6205 3.432 63.3725 3.856L62.5805 3.196C62.9085 2.652 63.3045 2.244 63.7685 1.972C64.2325 1.692 64.7685 1.552 65.3765 1.552C65.8885 1.552 66.3325 1.652 66.7085 1.852C67.0925 2.052 67.3885 2.332 67.5965 2.692C67.8045 3.052 67.9085 3.472 67.9085 3.952C67.9085 4.296 67.8645 4.604 67.7765 4.876C67.6965 5.148 67.5485 5.428 67.3325 5.716C67.1245 5.996 66.8325 6.332 66.4565 6.724L63.9725 9.28L62.5085 9.316ZM62.5085 10V9.316L63.4685 8.992H68.1005V10H62.5085ZM68.7007 7.132L71.7367 1.672H73.0087L69.9127 7.132H68.7007ZM68.7007 7.828V7.132L69.1807 6.82H75.0847V7.828H68.7007ZM72.7687 10V4.492H73.8847V10H72.7687Z" fill="#363636"/>
</svg>
