<svg width="33" height="32" viewBox="0 0 33 32" fill="none" xmlns="http://www.w3.org/2000/svg">
<rect x="0.5" width="32" height="32" rx="8" fill="#D14E4E" fill-opacity="0.2"/>
<path d="M16.5 6C17.8132 6 19.1136 6.25866 20.3268 6.7612C21.5401 7.26375 22.6425 8.00035 23.5711 8.92893C24.4997 9.85752 25.2362 10.9599 25.7388 12.1732C26.2413 13.3864 26.5 14.6868 26.5 16C26.5 18.6522 25.4464 21.1957 23.5711 23.0711C21.6957 24.9464 19.1522 26 16.5 26C15.1868 26 13.8864 25.7413 12.6732 25.2388C11.4599 24.7362 10.3575 23.9997 9.42893 23.0711C7.55357 21.1957 6.5 18.6522 6.5 16C6.5 13.3478 7.55357 10.8043 9.42893 8.92893C11.3043 7.05357 13.8478 6 16.5 6ZM16.5 21L21.5 16H18.5V12H14.5V16H11.5L16.5 21Z" fill="#D14E4E"/>
</svg>
