<svg width="16" height="16" viewBox="0 0 16 16" fill="none" xmlns="http://www.w3.org/2000/svg">
<path d="M14.7954 2.79549C15.2348 2.35616 15.2348 1.64384 14.7954 1.2045C14.3561 0.765166 13.6439 0.765166 13.2045 1.2045L14.7954 2.79549ZM1.2045 13.2045C0.765166 13.6439 0.765166 14.3561 1.2045 14.7954C1.64384 15.2348 2.35616 15.2348 2.79549 14.7954L1.2045 13.2045ZM2.79549 1.2045C2.35616 0.765166 1.64384 0.765166 1.2045 1.2045C0.765166 1.64384 0.765166 2.35616 1.2045 2.79549L2.79549 1.2045ZM13.2045 14.7954C13.6439 15.2348 14.3561 15.2348 14.7954 14.7954C15.2348 14.3561 15.2348 13.6439 14.7954 13.2045L13.2045 14.7954ZM13.2045 1.2045L1.2045 13.2045L2.79549 14.7954L14.7954 2.79549L13.2045 1.2045ZM1.2045 2.79549L13.2045 14.7954L14.7954 13.2045L2.79549 1.2045L1.2045 2.79549Z" fill="white"/>
</svg>
