<svg width="12" height="12" viewBox="0 0 12 12" fill="none" xmlns="http://www.w3.org/2000/svg">
<path d="M3 10.0067C3 10.4933 3.14667 10.9333 3.42 11.3133C1.63333 11.2 0 10.5467 0 9.34V8.75333C0.7 9.3 1.73333 9.66667 3 9.78667V10.0067ZM3.02665 7.29333C3.01999 7.3 3.02002 7.30667 3.02002 7.31333C3.00669 7.38 3 7.44667 3 7.51333V8.78667C1.38667 8.6 0 7.96 0 6.84667V6.26C0.7 6.81333 1.74002 7.18 3.02002 7.29333H3.02665ZM5.62667 4.85333C4.61333 5.16667 3.82001 5.68 3.38001 6.32C1.60667 6.20667 0 5.55333 0 4.35335V3.89999C0.873333 4.58665 2.27333 4.98667 4 4.98667C4.58 4.98667 5.12667 4.94 5.62667 4.85333ZM8 3.89999V4.35335C8 4.41335 7.99333 4.46669 7.98667 4.52002C7.46 4.52002 6.96 4.56665 6.49333 4.64665C7.09333 4.46665 7.6 4.21332 8 3.89999ZM4 0C2 0 0 0.66666 0 1.99333C0 3.33333 2 3.98665 4 3.98665C6 3.98665 8 3.33333 8 1.99333C8 0.66666 6 0 4 0ZM8 10.5067C6.32667 10.5067 4.9 10.0667 4 9.35333V10.0067C4 11.3333 6 12 8 12C10 12 12 11.3333 12 10.0067V9.35333C11.1 10.0667 9.67333 10.5067 8 10.5067ZM8 5.52C5.79333 5.52 4 6.41333 4 7.51333C4 8.61333 5.79333 9.50667 8 9.50667C10.2067 9.50667 12 8.61333 12 7.51333C12 6.41333 10.2067 5.52 8 5.52Z" fill="#9B9B9B"/>
</svg>
