<svg width="24" height="24" viewBox="0 0 24 24" fill="none" xmlns="http://www.w3.org/2000/svg">
<rect width="24" height="24" rx="4" fill="#4E4E4E"/>
<path d="M15.3699 9.85118L12.001 15.6884V9.85118H15.3699Z" fill="white"/>
<path fill-rule="evenodd" clip-rule="evenodd" d="M5 12C5 8.13383 8.13381 5 12 5C15.8662 5 19 8.13383 19 12C19 15.8662 15.8662 19 12 19C8.13381 19 5 15.8662 5 12ZM12.5204 16.6231L16.4378 9.83359C16.5452 9.65026 16.5458 9.42121 16.4403 9.23636C16.3338 9.05001 16.1344 8.93397 15.9194 8.93397H8.08058C7.86559 8.93397 7.6657 9.05001 7.55921 9.23636C7.4532 9.42221 7.45473 9.65175 7.56122 9.83259L11.4806 16.6221C11.5801 16.7954 11.7589 16.9069 11.9483 16.9195C11.9664 16.921 11.9844 16.922 12.0025 16.922C12.2145 16.922 12.4139 16.8085 12.5204 16.6231Z" fill="white"/>
</svg>
