<svg width="12" height="12" viewBox="0 0 12 12" fill="none" xmlns="http://www.w3.org/2000/svg">
<path d="M9.33333 0H2.66667C1.19333 0 0 1.19333 0 2.66667V9.33333C0 10.8067 1.19333 12 2.66667 12H10.6667C11.4067 12 12 11.4067 12 10.6667V4C12 3.26667 11.4067 2.66667 10.6667 2.66667V1.33333C10.6667 0.6 10.0733 0 9.33333 0ZM9.33333 1.33333V2.66667H2.66667C2.18 2.66667 1.72667 2.8 1.33333 3.02667V2.66667C1.33333 1.93333 1.93333 1.33333 2.66667 1.33333M8.33333 8.33333C7.78 8.33333 7.33333 7.88667 7.33333 7.33333C7.33333 6.78 7.78 6.33333 8.33333 6.33333C8.88667 6.33333 9.33333 6.78 9.33333 7.33333C9.33333 7.88667 8.88667 8.33333 8.33333 8.33333Z" fill="#9B9B9B"/>
</svg>
