<svg width="14" height="14" viewBox="0 0 14 14" fill="none" xmlns="http://www.w3.org/2000/svg">
<path d="M7.82357 1.1819L9.26211 4.08337C9.37029 4.3019 9.57918 4.45302 9.8214 4.48784L13.142 4.9678C13.7509 5.05594 13.9939 5.80263 13.5532 6.23078L11.1525 8.56041C10.977 8.73079 10.8969 8.97596 10.9384 9.21671L11.4872 12.4049C11.5983 13.0515 10.9191 13.5449 10.3369 13.2404L7.45691 11.733C7.24061 11.6197 6.98281 11.6197 6.76726 11.733L3.88947 13.2389C3.30651 13.5441 2.62501 13.05 2.73686 12.4019L3.28581 9.21671C3.32729 8.97596 3.24725 8.73079 3.07169 8.56041L0.670976 6.23078C0.229495 5.80263 0.472407 5.05594 1.08203 4.9678L4.4028 4.48784C4.64428 4.45302 4.85318 4.3019 4.96207 4.08337L6.40059 1.1819C6.69023 0.593012 7.53172 0.593012 7.82357 1.1819Z" fill="#9B9B9B"/>
</svg>
