<svg width="24" height="24" viewBox="0 0 24 24" fill="none" xmlns="http://www.w3.org/2000/svg">
<rect width="24" height="24" rx="4" fill="#0098EA"/>
<path d="M16.7269 5H7.27194C5.53358 5 4.43207 6.87508 5.30687 8.39192L11.1415 18.5054C11.5222 19.1656 12.4766 19.1656 12.8574 18.5054L18.6937 8.39106C19.5677 6.87767 18.4653 5 16.7278 5H16.7269ZM11.1372 15.4717L9.86607 13.0126L6.79949 7.52837C6.7529 7.44646 6.72875 7.3537 6.72947 7.25946C6.73019 7.16523 6.75576 7.07286 6.80359 6.99166C6.85143 6.91047 6.91984 6.84334 7.00192 6.79704C7.084 6.75074 7.17684 6.72692 7.27108 6.72798H11.1346V15.4734L11.1363 15.4717H11.1372ZM17.1968 7.5275L14.1319 13.0134L12.8608 15.4717V6.72625H16.7261C17.1501 6.72625 17.3993 7.1762 17.1968 7.5275Z" fill="white"/>
</svg>
