<svg width="24" height="24" viewBox="0 0 24 24" fill="none" xmlns="http://www.w3.org/2000/svg">
<path d="M17.777 8.3163L12.0017 18.3229V8.3163H17.777Z" fill="white"/>
<path fill-rule="evenodd" clip-rule="evenodd" d="M0 12C0 5.37228 5.37224 0 12 0C18.6277 0 24 5.37228 24 12C24 18.6277 18.6277 24 12 24C5.37224 24 0 18.6277 0 12ZM12.892 19.9254L19.6076 8.28616C19.7919 7.97187 19.7928 7.57922 19.6119 7.26232C19.4293 6.94287 19.0875 6.74395 18.719 6.74395H5.281C4.91244 6.74395 4.56977 6.94287 4.38721 7.26232C4.20549 7.58094 4.2081 7.97444 4.39066 8.28443L11.1096 19.9236C11.2801 20.2207 11.5866 20.4118 11.9113 20.4334C11.9423 20.436 11.9733 20.4377 12.0043 20.4377C12.3677 20.4377 12.7095 20.2431 12.892 19.9254Z" fill="white"/>
</svg>
