<svg width="24" height="24" viewBox="0 0 24 24" fill="none" xmlns="http://www.w3.org/2000/svg">
<path d="M17.777 15.6837L12.0017 5.6771V15.6837H17.777Z" fill="white"/>
<path fill-rule="evenodd" clip-rule="evenodd" d="M0 12C0 18.6277 5.37224 24 12 24C18.6277 24 24 18.6277 24 12C24 5.37228 18.6277 0 12 0C5.37224 0 0 5.37228 0 12ZM12.892 4.07465L19.6076 15.7138C19.7919 16.0281 19.7928 16.4208 19.6119 16.7377C19.4293 17.0571 19.0875 17.256 18.719 17.256H5.281C4.91244 17.256 4.56977 17.0571 4.38721 16.7377C4.20549 16.4191 4.2081 16.0256 4.39066 15.7156L11.1096 4.07637C11.2801 3.77929 11.5866 3.58815 11.9113 3.56662C11.9423 3.56402 11.9733 3.56229 12.0043 3.56229C12.3677 3.56229 12.7095 3.75692 12.892 4.07465Z" fill="white"/>
</svg>
